<?xml version="1.0" standalone="no"?><!DOCTYPE svg PUBLIC "-//W3C//DTD SVG 1.1//EN" "http://www.w3.org/Graphics/SVG/1.1/DTD/svg11.dtd"><svg t="1608037023220" class="icon" viewBox="0 0 1024 1024" version="1.1" xmlns="http://www.w3.org/2000/svg" p-id="2475" xmlns:xlink="http://www.w3.org/1999/xlink" width="200" height="200"><defs><style type="text/css"></style></defs><path d="M512 981.333333c-259.204267 0-469.333333-210.129067-469.333333-469.333333S252.795733 42.666667 512 42.666667s469.333333 210.129067 469.333333 469.333333-210.129067 469.333333-469.333333 469.333333z m0-312.682666c75.9296-0.213333 137.442133-61.4656 137.659733-137.070934V393.070933C649.659733 317.393067 588.0064 256 512 256c-76.002133 0-137.659733 61.393067-137.659733 137.070933v138.5088c0.213333 75.605333 61.730133 136.853333 137.659733 137.070934z m186.926933-138.274134v1.2032c0 102.805333-83.682133 186.129067-186.926933 186.129067s-186.926933-83.328-186.926933-186.129067v-1.2032a21.7344 21.7344 0 1 0-43.473067 0v1.2032c0 119.394133 91.579733 217.5104 208.6656 228.4032v71.709867c0 11.972267 9.706667 21.640533 21.7344 21.640533 12.027733 0 21.7344-9.668267 21.7344-21.640533V759.978667C650.820267 749.090133 742.4 650.973867 742.4 531.579733v-1.2032a21.7344 21.7344 0 0 0-43.473067 0z" p-id="2476"></path></svg>